<svg width="14" height="14" viewBox="0 0 14 14" fill="none" xmlns="http://www.w3.org/2000/svg">
<g opacity="0.8">
<path d="M13.8679 2.35156L9.33301 7.01823L13.8679 11.6849C13.9499 11.5074 13.9997 11.3113 13.9997 11.1017V2.93471C13.9997 2.72519 13.9499 2.52903 13.8679 2.35156Z" fill="#161616"/>
<path d="M12.3453 2.35156H1.65536C1.47989 2.35156 1.31561 2.39774 1.16699 2.47385L6.19437 7.82802C6.63889 8.30385 7.36178 8.30385 7.80625 7.82802L12.8337 2.47385C12.685 2.39774 12.5208 2.35156 12.3453 2.35156Z" fill="#161616"/>
<path d="M0.131715 2.35156C0.0497364 2.52903 0 2.72519 0 2.93471V11.1017C0 11.3113 0.0497364 11.5075 0.131715 11.6849L4.66667 7.01823L0.131715 2.35156Z" fill="#161616"/>
<path d="M8.90019 8.18457L8.34359 8.66888C7.60289 9.31339 6.39771 9.31339 5.65704 8.66888L5.10045 8.18457L1.16699 11.5851C1.31561 11.647 1.47989 11.6846 1.65536 11.6846H12.3453C12.5208 11.6846 12.685 11.647 12.8337 11.5851L8.90019 8.18457Z" fill="#161616"/>
</g>
</svg>
