<svg width="24" height="24" viewBox="0 0 24 24" fill="none" xmlns="http://www.w3.org/2000/svg">
<path d="M12 2.25C7.86675 2.25 4.5 5.6175 4.5 9.75C4.5 11.8748 5.5575 14.067 6.9285 16.1175C8.30025 18.1687 10.0155 20.076 11.4698 21.5303C11.6104 21.6709 11.8011 21.7498 12 21.7498C12.1989 21.7498 12.3896 21.6709 12.5303 21.5303C14.0175 20.043 15.7327 18.135 17.0963 16.0912C18.4598 14.0483 19.5 11.8702 19.5 9.75C19.5 5.6175 16.1333 2.25 12 2.25ZM12 6.75C13.6477 6.75 15 8.10225 15 9.75C15 11.3977 13.6477 12.75 12 12.75C10.3523 12.75 9 11.3977 9 9.75C9 8.10225 10.3523 6.75 12 6.75Z" fill="white"/>
</svg>
