<svg width="15" height="20" viewBox="0 0 15 20" fill="none" xmlns="http://www.w3.org/2000/svg">
<path d="M7.5 0C3.36675 0 0 3.3675 0 7.5C0 9.62475 1.0575 11.817 2.4285 13.8675C3.80025 15.9187 5.5155 17.826 6.96975 19.2803C7.1104 19.4209 7.30113 19.4998 7.5 19.4998C7.69887 19.4998 7.8896 19.4209 8.03025 19.2803C9.5175 17.793 11.2327 15.885 12.5963 13.8412C13.9598 11.7983 15 9.62025 15 7.5C15 3.3675 11.6333 0 7.5 0ZM7.5 4.5C9.14775 4.5 10.5 5.85225 10.5 7.5C10.5 9.14775 9.14775 10.5 7.5 10.5C5.85225 10.5 4.5 9.14775 4.5 7.5C4.5 5.85225 5.85225 4.5 7.5 4.5Z" fill="#143046"/>
</svg>
