<svg width="167" height="57" viewBox="0 0 167 57" fill="none" xmlns="http://www.w3.org/2000/svg">
<g clip-path="url(#clip0_45_520)">
<path d="M58.0606 27.8619C58.0784 27.912 58.0861 27.9654 58.0831 28.0187C58.0801 28.072 58.0665 28.1241 58.0433 28.1718C58.0201 28.2194 57.9876 28.2615 57.948 28.2954C57.9084 28.3293 57.8625 28.3543 57.8132 28.3688C57.7283 28.3818 57.6419 28.3818 57.557 28.3688H52.4852V56.7559H5.81389V28.3964H0.7951C0.670995 28.4053 0.546727 28.3819 0.433444 28.3283C0.320161 28.2747 0.221414 28.1925 0.146077 28.0893C0.0707412 27.986 0.0211649 27.8649 0.00181441 27.7367C-0.0175361 27.6085 -0.00604456 27.4773 0.0352241 27.3549C0.0851214 27.2114 0.170468 27.0843 0.282629 26.9863L13.1654 15.447L24.8288 5.02305L30.3424 0.0921862L30.4042 0.0368888L40.1237 10.1752H40.1768V4.42395C40.1848 3.37829 40.5507 2.37005 41.2084 1.58089C41.8662 0.791722 42.7725 0.273552 43.7641 0.119807C44.6802 -0.0279681 45.6145 0.000168305 46.5209 0.202781C47.5038 0.456816 48.3752 1.0507 48.993 1.88758C49.6108 2.72447 49.9385 3.75498 49.9228 4.81109C49.9228 9.5853 49.9228 14.3595 49.9228 19.1337C49.9218 19.1977 49.9339 19.2613 49.9583 19.3201C49.9827 19.3789 50.0187 19.4316 50.0641 19.4747L57.9104 27.6591C57.9727 27.7158 58.0237 27.7847 58.0606 27.8619ZM42.4564 42.3596C42.8762 40.8036 43.0786 39.1925 43.0573 37.5762C43.0573 34.9033 43.0573 32.2305 43.0573 29.5577V25.5577C43.0573 25.1983 42.9689 25.1153 42.6331 25.0969H15.4185C15.3688 25.0927 15.3188 25.0998 15.2719 25.1178C15.2251 25.1358 15.1825 25.1642 15.1473 25.201C15.112 25.2378 15.0848 25.2821 15.0675 25.331C15.0503 25.3799 15.0434 25.4321 15.0474 25.484V25.8157C15.0474 29.5853 15.0474 33.3457 15.0474 37.1153C15.0069 38.9032 15.2122 40.6878 15.6571 42.4149C16.146 44.2089 16.9489 45.8932 18.0251 47.3827C19.2907 49.111 20.844 50.5876 22.611 51.7421C24.291 52.8354 26.066 53.7612 27.9125 54.5071C28.2567 54.6756 28.6323 54.763 29.0126 54.763C29.3928 54.763 29.7684 54.6756 30.1126 54.5071C30.5986 54.2674 31.1199 54.0924 31.6059 53.8435C32.7104 53.2813 33.8326 52.7743 34.8752 52.1199C36.457 51.1548 37.8924 49.9497 39.1341 48.544C40.6894 46.7814 41.8272 44.6634 42.4564 42.3596Z" fill="url(#paint0_linear_45_520)"/>
<path d="M40.9722 27.8619C40.9722 31.1246 40.9722 34.3872 40.9722 37.6499C40.9354 38.6849 40.8142 39.7147 40.6099 40.7282C40.4458 41.6252 40.1941 42.5023 39.8588 43.3458C39.482 44.2184 39.0263 45.0517 38.4981 45.8343C37.5233 47.329 36.274 48.607 34.8224 49.5946C33.8946 50.2306 32.9403 50.8481 31.9595 51.3919C30.9787 51.9357 30.1924 52.2214 29.2557 52.6085C29.101 52.6633 28.9333 52.6633 28.7786 52.6085C27.2437 52.0075 25.7648 51.2609 24.3607 50.3781C23.021 49.522 21.7942 48.4871 20.7114 47.2997C19.7124 46.1846 18.8973 44.9046 18.2992 43.5117C17.9968 42.7682 17.7516 42.0008 17.5659 41.2168C17.2188 39.6772 17.0643 38.0972 17.1064 36.5162V27.908C17.1064 27.3457 17.1064 27.3089 17.663 27.3089H23.6361C24.1574 27.3089 24.1928 27.3549 24.1928 27.8803V35.2536C24.1928 35.7236 24.1398 35.7789 23.6803 35.7789C23.2208 35.7789 22.9646 35.7789 22.6112 35.7789C22.4667 35.7937 22.3211 35.7712 22.187 35.7133C22.0529 35.6555 21.9346 35.564 21.8424 35.4471C21.6169 35.1702 21.3236 34.9622 20.9937 34.8453C20.6639 34.7285 20.3098 34.7071 19.9692 34.7835C19.5162 34.8838 19.1074 35.1366 18.8057 35.5029C18.5039 35.8693 18.326 36.329 18.2992 36.8112C18.2805 37.267 18.4003 37.7174 18.6414 38.0981C18.8826 38.4788 19.2329 38.7703 19.6423 38.931C20.0311 39.0923 20.4591 39.1203 20.8642 39.0109C21.2693 38.9016 21.6305 38.6605 21.8954 38.3227C21.9658 38.2307 22.0563 38.1576 22.1592 38.1095C22.2622 38.0614 22.3748 38.0397 22.4874 38.0462H25.7567C26.1985 38.0462 26.3222 37.9264 26.3222 37.4656C26.3222 35.7236 26.3222 33.9725 26.3222 32.2305C26.3222 30.7651 26.3222 29.2997 26.3222 27.8434C26.3222 27.3826 26.3929 27.3181 26.8259 27.3089H27.6476C27.895 27.3089 28.0099 27.4379 28.0099 27.6959V35.9172C28.0099 38.5808 28.0099 41.2444 28.0099 43.8988C28.0222 44.0456 28.0005 44.1934 27.9467 44.3297C27.8929 44.466 27.8085 44.5869 27.7006 44.6822C27.4788 44.8886 27.3027 45.1428 27.1845 45.4272C27.0662 45.7116 27.0087 46.0194 27.0159 46.3294C27.023 46.6393 27.0947 46.9439 27.2259 47.2221C27.3572 47.5002 27.5448 47.7453 27.7759 47.9403C28.007 48.1352 28.2759 48.2755 28.5641 48.3512C28.8523 48.427 29.1528 48.4365 29.4449 48.3791C29.737 48.3217 30.0136 48.1987 30.2556 48.0187C30.4975 47.8387 30.6991 47.6059 30.8462 47.3366C31.1049 46.9057 31.2028 46.3907 31.1214 45.8894C31.0399 45.3882 30.7848 44.9356 30.4044 44.6177C30.3224 44.5443 30.2581 44.4518 30.2167 44.3478C30.1752 44.2437 30.1578 44.131 30.1658 44.0186C30.1658 42.378 30.1658 40.7467 30.1658 39.1153C30.1658 38.507 30.1658 37.8895 30.1658 37.272C30.1658 34.1476 30.1658 31.0324 30.1658 27.908C30.1658 27.3365 30.1659 27.2996 30.7579 27.2996H31.4471C31.4918 27.2957 31.5368 27.3017 31.5791 27.3172C31.6214 27.3327 31.6601 27.3574 31.6927 27.3896C31.7252 27.4218 31.7509 27.4608 31.7679 27.5041C31.785 27.5473 31.7931 27.5939 31.7916 27.6406C31.7916 27.7973 31.7916 27.9448 31.7916 28.1015V41.0047C31.7916 41.5946 31.7917 41.6131 32.3748 41.6223H34.5661C34.6952 41.6106 34.8251 41.6312 34.945 41.6825C35.0649 41.7338 35.1713 41.8143 35.2553 41.9172C35.5258 42.2476 35.8856 42.4851 36.2876 42.5986C36.6897 42.712 37.1152 42.6962 37.5085 42.5532C37.7799 42.4486 38.0272 42.2858 38.2344 42.0752C38.4417 41.8647 38.6043 41.6112 38.7117 41.331C38.8192 41.0508 38.8691 40.7503 38.8581 40.4487C38.8472 40.1472 38.7758 39.8514 38.6484 39.5804C38.521 39.3095 38.3405 39.0695 38.1186 38.8759C37.8967 38.6822 37.6384 38.5394 37.3602 38.4564C37.082 38.3735 36.7903 38.3524 36.5038 38.3944C36.2173 38.4365 35.9425 38.5408 35.6971 38.7006C35.5291 38.8302 35.3723 38.9752 35.2288 39.1338C35.0661 39.2665 34.8741 39.3545 34.6704 39.3899C34.4667 39.4253 34.2577 39.407 34.0625 39.3365C34.0253 39.31 33.9936 39.2759 33.9693 39.2363C33.9451 39.1968 33.9286 39.1524 33.9211 39.1061C33.9033 38.9315 33.9033 38.7554 33.9211 38.5808C33.9211 35.0324 33.9211 31.4932 33.9211 27.9448C33.8985 27.8261 33.8985 27.704 33.9211 27.5853C34.0005 27.4596 34.1102 27.3579 34.2392 27.2905C34.3501 27.2681 34.4641 27.2681 34.575 27.2905H40.5127C40.9192 27.3089 40.9722 27.355 40.9722 27.8619Z" fill="url(#paint1_linear_45_520)"/>
<path d="M66.9673 49.6223H67.8509V55.8343H70.7137V56.5993H66.9673V49.6223Z" fill="white"/>
<path d="M77.0315 53.0693C77.0315 55.4656 75.6266 56.7559 73.9125 56.7559C72.1983 56.7559 70.8994 55.3089 70.8994 53.1891C70.8994 51.0693 72.216 49.5025 74.0096 49.5025C75.8033 49.5025 77.0315 50.9587 77.0315 53.0693ZM71.8184 53.1707C71.8184 54.6822 72.5871 56.0186 73.9655 56.0186C75.3439 56.0186 76.1214 54.7006 76.1214 53.1061C76.1214 51.7052 75.4234 50.249 73.9743 50.249C72.5252 50.249 71.8184 51.6223 71.8184 53.1523V53.1707Z" fill="white"/>
<path d="M79.2581 56.6269L77.5527 49.6223H78.4363L79.2316 53.1614C79.4348 54.037 79.6115 54.9126 79.7352 55.5854C79.8412 54.8849 80.0533 54.0555 80.283 53.1523L81.1666 49.6223H82.0502L82.8631 53.1707C83.0575 54.0094 83.2342 54.8389 83.3403 55.5762C83.4816 54.802 83.6672 54.0278 83.8792 53.1523L84.7628 49.6223H85.6464L83.7467 56.6269H82.8631L81.9795 52.9402C81.7899 52.1879 81.6424 51.4247 81.5377 50.6545C81.4042 51.4258 81.2301 52.1889 81.0164 52.9402L80.0621 56.6269H79.2581Z" fill="white"/>
<path d="M93.3956 56.4057C92.8354 56.6447 92.2333 56.7577 91.6284 56.7375C91.1786 56.7657 90.7282 56.6926 90.3079 56.5229C89.8877 56.3533 89.5074 56.0912 89.193 55.7545C88.8785 55.4177 88.6374 55.0143 88.4859 54.5716C88.3343 54.1289 88.276 53.6574 88.3149 53.1891C88.288 52.6976 88.361 52.2058 88.5291 51.7458C88.6972 51.2857 88.9566 50.868 89.2903 50.5199C89.6241 50.1718 90.0245 49.9012 90.4656 49.7259C90.9066 49.5505 91.3781 49.4744 91.8493 49.5025C92.398 49.4825 92.9442 49.5895 93.4486 49.8158L93.2277 50.5532C92.8063 50.3537 92.3472 50.2561 91.8846 50.2675C91.5203 50.2423 91.1552 50.3008 90.8148 50.4386C90.4744 50.5764 90.1671 50.7903 89.9145 51.0653C89.6619 51.3402 89.47 51.6695 89.3524 52.0301C89.2348 52.3906 89.1944 52.7737 89.2339 53.1523C89.1946 53.5207 89.233 53.8937 89.3464 54.2451C89.4598 54.5964 89.6455 54.9177 89.8904 55.1864C90.1354 55.4551 90.4337 55.6646 90.7644 55.8004C91.0951 55.9362 91.4503 55.995 91.8051 55.9726C92.2939 55.9795 92.7786 55.879 93.2277 55.6776L93.3956 56.4057Z" fill="white"/>
<path d="M95.3396 49.6223V53.779C95.3396 55.3366 96.0022 56.0002 96.9035 56.0002C97.8048 56.0002 98.5382 55.3182 98.5382 53.779V49.6223H99.4217V53.7145C99.4217 55.8619 98.3349 56.7375 96.8858 56.7375C95.4368 56.7375 94.4736 55.9264 94.4736 53.7421V49.6223H95.3396Z" fill="white"/>
<path d="M100.941 49.7144C101.49 49.6169 102.046 49.5676 102.603 49.567C103.296 49.495 103.991 49.6991 104.546 50.1384C104.718 50.3134 104.853 50.523 104.944 50.7543C105.035 50.9856 105.08 51.234 105.077 51.484C105.077 51.8817 104.954 52.2689 104.727 52.5878C104.499 52.9067 104.179 53.1403 103.813 53.2536C104.081 53.3782 104.312 53.5741 104.485 53.8216C104.657 54.0691 104.763 54.3596 104.794 54.6637C104.911 55.3209 105.086 55.9657 105.315 56.59H104.432C104.237 56.0465 104.092 55.4848 103.999 54.9126C103.795 53.9909 103.424 53.5854 102.638 53.5578H101.825V56.59H100.941V49.7144ZM101.825 52.9034H102.709C103.636 52.9034 104.22 52.378 104.22 51.5762C104.22 50.7743 103.592 50.2766 102.682 50.2766C102.386 50.2624 102.089 50.2872 101.798 50.3504L101.825 52.9034Z" fill="white"/>
<path d="M106.296 49.7144C106.848 49.6174 107.406 49.5681 107.966 49.567C108.66 49.496 109.354 49.7 109.91 50.1384C110.079 50.3142 110.213 50.5242 110.303 50.7555C110.392 50.9868 110.436 51.2346 110.431 51.4841C110.432 51.8806 110.311 52.2668 110.085 52.5856C109.859 52.9044 109.54 53.1387 109.176 53.2536C109.444 53.3782 109.676 53.5741 109.848 53.8216C110.02 54.0692 110.127 54.3596 110.157 54.6638C110.278 55.3193 110.449 55.9635 110.67 56.59H109.786C109.591 56.0458 109.443 55.4844 109.344 54.9126C109.15 53.991 108.779 53.5855 107.992 53.5578H107.179V56.59H106.296V49.7144ZM107.179 52.9034H108.063C108.991 52.9034 109.574 52.3781 109.574 51.5762C109.574 50.7744 108.947 50.2766 108.037 50.2766C107.74 50.2624 107.443 50.2872 107.153 50.3504L107.179 52.9034Z" fill="white"/>
<path d="M115.132 53.3365H112.525V55.8343H115.441V56.5993H111.65V49.5946H115.291V50.3504H112.525V52.5624H115.132V53.3365Z" fill="white"/>
<path d="M116.546 56.6269V49.6223H117.509L119.647 53.1614C120.092 53.8922 120.491 54.6527 120.84 55.438C120.761 54.5163 120.734 53.6499 120.734 52.5624V49.6315H121.556V56.6361H120.672L118.596 53.0693C118.132 52.318 117.716 51.5361 117.35 50.7283C117.403 51.6039 117.412 52.4518 117.412 53.6131V56.6085L116.546 56.6269Z" fill="white"/>
<path d="M124.401 50.3873H122.36V49.6223H127.326V50.3873H125.276V56.6269H124.392L124.401 50.3873Z" fill="white"/>
<path d="M130.082 55.5209C130.547 55.8208 131.082 55.9804 131.629 55.9817C132.512 55.9817 133.033 55.4932 133.033 54.7836C133.033 54.0739 132.671 53.7513 131.761 53.4011C130.665 52.9863 129.994 52.3873 129.994 51.4103C130.006 51.1323 130.074 50.8601 130.192 50.6106C130.31 50.3612 130.477 50.14 130.681 49.9608C130.885 49.7816 131.123 49.6484 131.378 49.5696C131.634 49.4907 131.903 49.4678 132.168 49.5024C132.678 49.4816 133.184 49.6024 133.634 49.8527L133.396 50.59C133.012 50.361 132.575 50.2463 132.132 50.2582C131.249 50.2582 130.869 50.8297 130.869 51.2997C130.869 51.9541 131.275 52.2766 132.203 52.6545C133.343 53.1153 133.908 53.6868 133.908 54.7099C133.908 55.7329 133.148 56.7375 131.567 56.7375C130.968 56.7408 130.378 56.5855 129.853 56.2859L130.082 55.5209Z" fill="white"/>
<path d="M136.603 56.6269V53.6499L134.465 49.6223H135.463L136.409 51.5485C136.656 52.0831 136.868 52.4702 137.08 52.9955C137.257 52.5439 137.496 52.0739 137.761 51.5485L138.724 49.6223H139.705L137.46 53.6407V56.6269H136.603Z" fill="white"/>
<path d="M140.261 55.5209C140.723 55.8192 141.255 55.9787 141.798 55.9817C142.682 55.9817 143.203 55.4932 143.203 54.7836C143.203 54.0739 142.85 53.7513 141.94 53.4011C140.844 52.9863 140.173 52.3873 140.173 51.4103C140.185 51.1323 140.253 50.8601 140.371 50.6106C140.489 50.3612 140.655 50.14 140.86 49.9608C141.064 49.7816 141.301 49.6484 141.557 49.5696C141.813 49.4907 142.082 49.4678 142.346 49.5024C142.859 49.4817 143.368 49.6025 143.822 49.8527L143.583 50.59C143.199 50.3623 142.762 50.2477 142.32 50.2582C141.436 50.2582 141.056 50.8297 141.056 51.2997C141.056 51.9541 141.463 52.2766 142.39 52.6545C143.521 53.1153 144.096 53.6868 144.096 54.7099C144.096 55.7329 143.336 56.7375 141.754 56.7375C141.155 56.745 140.564 56.5893 140.04 56.2859L140.261 55.5209Z" fill="white"/>
<path d="M146.588 50.3873H144.547V49.6223H149.521V50.3873H147.472V56.6269H146.588V50.3873Z" fill="white"/>
<path d="M153.701 53.3365H151.103V55.8343H154.01V56.5993H150.228V49.5946H153.86V50.3504H151.103V52.5624H153.701V53.3365Z" fill="white"/>
<path d="M160.796 53.5486C160.751 52.5716 160.69 51.3826 160.69 50.5255C160.442 51.3365 160.177 52.2214 159.806 53.1891L158.613 56.5808H157.959L156.864 53.2444C156.546 52.249 156.289 51.355 156.095 50.4794C156.095 51.4011 156.024 52.5163 155.962 53.5762L155.786 56.5808H154.955L155.423 49.5762H156.537L157.677 52.9587C157.959 53.825 158.18 54.59 158.357 55.3181C158.534 54.6177 158.781 53.8435 159.073 52.9587L160.274 49.5762H161.379L161.794 56.5808H160.91L160.796 53.5486Z" fill="white"/>
<path d="M163.04 55.5209C163.505 55.8208 164.04 55.9804 164.587 55.9817C165.47 55.9817 165.991 55.4932 165.991 54.7836C165.991 54.0739 165.629 53.7513 164.728 53.4011C163.632 52.9863 162.961 52.3873 162.961 51.4103C162.973 51.1323 163.041 50.8601 163.159 50.6106C163.277 50.3612 163.444 50.14 163.648 49.9608C163.852 49.7816 164.089 49.6484 164.345 49.5696C164.601 49.4907 164.87 49.4678 165.134 49.5024C165.647 49.4817 166.156 49.6025 166.61 49.8527L166.371 50.59C165.983 50.3629 165.544 50.2483 165.099 50.2582C164.215 50.2582 163.835 50.8297 163.835 51.2997C163.835 51.9541 164.251 52.2766 165.17 52.6545C166.31 53.1153 166.875 53.6868 166.875 54.7099C166.875 55.7329 166.124 56.7375 164.534 56.7375C163.935 56.7408 163.345 56.5855 162.819 56.2859L163.04 55.5209Z" fill="white"/>
<path d="M67.1885 20.977H72.004V38.6084H82.4481V42.7006H67.1885V20.977Z" fill="white"/>
<path d="M89.0127 41.6315C87.3347 40.7105 85.9341 39.3228 84.9659 37.6222C83.9986 35.8617 83.4897 33.8679 83.4897 31.8388C83.4897 29.8097 83.9986 27.8159 84.9659 26.0554C85.9366 24.3569 87.3366 22.9699 89.0127 22.0462C90.7963 21.0696 92.7862 20.5752 94.8003 20.6084C96.4795 20.5843 98.1455 20.9199 99.6953 21.5945C101.118 22.2288 102.375 23.2084 103.362 24.4517L100.27 27.4286C99.6373 26.6217 98.8385 25.9739 97.9328 25.5334C97.0272 25.093 96.038 24.8713 95.0388 24.8848C93.8301 24.8744 92.6395 25.1921 91.584 25.8065C90.5873 26.3808 89.7665 27.237 89.216 28.2766C88.6586 29.3872 88.3675 30.6221 88.3675 31.8757C88.3675 33.1292 88.6586 34.3641 89.216 35.4747C89.7665 36.5143 90.5873 37.3706 91.584 37.9448C92.6395 38.5593 93.8301 38.8769 95.0388 38.8665C96.0414 38.879 97.0335 38.6531 97.9398 38.2059C98.8462 37.7588 99.6429 37.1021 100.27 36.2858L103.362 39.272C102.376 40.5307 101.112 41.5206 99.6777 42.1568C98.1235 42.8388 96.4508 43.1777 94.7649 43.1522C92.7556 43.1564 90.7775 42.6335 89.0127 41.6315Z" fill="white"/>
<path d="M108.496 42.378C107.164 42.0047 105.91 41.3799 104.794 40.5347L106.429 36.7466C107.398 37.4726 108.476 38.0269 109.618 38.3872C110.807 38.7968 112.051 39.0083 113.303 39.0139C114.352 39.0864 115.401 38.867 116.342 38.378C116.638 38.2144 116.885 37.9703 117.058 37.6716C117.231 37.3729 117.322 37.0309 117.323 36.6821C117.326 36.435 117.275 36.1905 117.174 35.9669C117.073 35.7434 116.925 35.5468 116.74 35.3918C116.299 35.0243 115.795 34.7461 115.256 34.5715C114.646 34.3688 113.833 34.1383 112.799 33.8895C111.478 33.5832 110.176 33.1891 108.903 32.7097C107.877 32.33 106.964 31.679 106.252 30.8203C105.491 29.8417 105.104 28.6041 105.165 27.3457C105.153 26.1258 105.495 24.9306 106.146 23.9171C106.882 22.8183 107.911 21.9691 109.106 21.4747C110.643 20.8258 112.291 20.5122 113.948 20.553C115.261 20.5515 116.57 20.7187 117.845 21.0508C119.02 21.3384 120.144 21.8174 121.176 22.4701L119.727 26.3411C117.982 25.249 115.991 24.6576 113.957 24.6268C112.919 24.5508 111.882 24.7875 110.97 25.3088C110.667 25.4999 110.418 25.7709 110.247 26.0945C110.077 26.4181 109.991 26.7829 109.998 27.1522C109.997 27.516 110.104 27.8713 110.305 28.1686C110.506 28.4659 110.791 28.6905 111.12 28.8111C112.217 29.2871 113.356 29.6454 114.522 29.8803C115.843 30.1909 117.144 30.5848 118.419 31.06C119.42 31.441 120.316 32.0742 121.026 32.9033C121.789 33.8696 122.177 35.0998 122.112 36.3503C122.117 37.5633 121.769 38.7492 121.114 39.7513C120.364 40.8457 119.327 41.6907 118.127 42.1845C116.587 42.8315 114.937 43.1451 113.276 43.1061C111.658 43.099 110.049 42.8539 108.496 42.378Z" fill="white"/>
</g>
<defs>
<linearGradient id="paint0_linear_45_520" x1="-0.000132652" y1="28.3688" x2="58.0872" y2="28.3688" gradientUnits="userSpaceOnUse">
<stop stop-color="#FAAF40"/>
<stop offset="0.52" stop-color="#F16522"/>
<stop offset="1" stop-color="#E23D21"/>
</linearGradient>
<linearGradient id="paint1_linear_45_520" x1="17.1152" y1="39.9633" x2="40.9722" y2="39.9633" gradientUnits="userSpaceOnUse">
<stop stop-color="#FAAF40"/>
<stop offset="0.52" stop-color="#F16522"/>
<stop offset="1" stop-color="#E23D21"/>
</linearGradient>
<clipPath id="clip0_45_520">
<rect width="166.875" height="56.7375" fill="white"/>
</clipPath>
</defs>
</svg>
