<svg width="135" height="40" viewBox="0 0 135 40" fill="none" xmlns="http://www.w3.org/2000/svg">
<rect width="135" height="40" rx="20" fill="url(#paint0_linear_45_327)"/>
<path d="M21.6634 31.3419C28.1048 31.3419 33.3267 26.1166 33.3267 19.6709C33.3267 13.2253 28.1048 8 21.6634 8C15.2219 8 10 13.2253 10 19.6709C10 26.1166 15.2219 31.3419 21.6634 31.3419Z" fill="#030A08"/>
<path d="M21.6634 31.3419C28.1048 31.3419 33.3267 26.1166 33.3267 19.6709C33.3267 13.2253 28.1048 8 21.6634 8C15.2219 8 10 13.2253 10 19.6709C10 26.1166 15.2219 31.3419 21.6634 31.3419Z" fill="url(#paint1_linear_45_327)"/>
<path d="M21.6631 7.6709C28.2863 7.6709 33.6553 13.0439 33.6553 19.6709C33.6553 26.2979 28.2863 31.6709 21.6631 31.6709C15.0399 31.6708 9.6709 26.2979 9.6709 19.6709C9.67092 13.044 15.04 7.67104 21.6631 7.6709Z" stroke="url(#paint2_linear_45_327)" stroke-opacity="0.4" stroke-width="0.657518"/>
<path d="M21.6631 25.8084C25.9532 25.8084 29.4311 23.0609 29.4311 19.6718C29.4311 16.2826 25.9532 13.5352 21.6631 13.5352C17.3729 13.5352 13.895 16.2826 13.895 19.6718C13.895 23.0609 17.3729 25.8084 21.6631 25.8084Z" fill="white"/>
<path d="M18.3363 21.2238C19.2645 21.2238 20.0169 20.2164 20.0169 18.9737C20.0169 17.731 19.2645 16.7236 18.3363 16.7236C17.4082 16.7236 16.6558 17.731 16.6558 18.9737C16.6558 20.2164 17.4082 21.2238 18.3363 21.2238Z" fill="#181818"/>
<path d="M24.7079 21.2238C25.6361 21.2238 26.3885 20.2164 26.3885 18.9737C26.3885 17.731 25.6361 16.7236 24.7079 16.7236C23.7797 16.7236 23.0273 17.731 23.0273 18.9737C23.0273 20.2164 23.7797 21.2238 24.7079 21.2238Z" fill="#181818"/>
<path d="M38.5869 25.6495V13.6896H42.423V22.3357H50.7193V25.6535L38.5869 25.6495Z" fill="#FDFDFD"/>
<path d="M38.5869 25.6495V13.6896H42.423V22.3357H50.7193V25.6535L38.5869 25.6495Z" fill="url(#paint3_linear_45_327)"/>
<path d="M66.2218 13.6896V20.3811C66.2218 21.7792 65.9514 22.8916 65.4108 23.7183C64.8702 24.5449 64.0962 25.1304 63.0889 25.4748C62.0821 25.8186 60.8236 25.9905 59.3134 25.9905C57.8032 25.9905 56.5447 25.8186 55.538 25.4748C54.5312 25.131 53.7572 24.5483 53.216 23.7269C52.6749 22.9054 52.4043 21.7902 52.4043 20.3811V13.6896H56.2813V20.2647C56.2813 21.1184 56.5419 21.7342 57.0631 22.1118C57.5843 22.4895 58.3355 22.6783 59.3166 22.6783C60.2888 22.6783 61.0378 22.4895 61.5638 22.1118C62.0897 21.7342 62.3519 21.1184 62.3503 20.2647V13.6896H66.2218Z" fill="#FDFDFD"/>
<path d="M66.2218 13.6896V20.3811C66.2218 21.7792 65.9514 22.8916 65.4108 23.7183C64.8702 24.5449 64.0962 25.1304 63.0889 25.4748C62.0821 25.8186 60.8236 25.9905 59.3134 25.9905C57.8032 25.9905 56.5447 25.8186 55.538 25.4748C54.5312 25.131 53.7572 24.5483 53.216 23.7269C52.6749 22.9054 52.4043 21.7902 52.4043 20.3811V13.6896H56.2813V20.2647C56.2813 21.1184 56.5419 21.7342 57.0631 22.1118C57.5843 22.4895 58.3355 22.6783 59.3166 22.6783C60.2888 22.6783 61.0378 22.4895 61.5638 22.1118C62.0897 21.7342 62.3519 21.1184 62.3503 20.2647V13.6896H66.2218Z" fill="url(#paint4_linear_45_327)"/>
<path d="M85.0905 25.6535H81.2511V17.5073H81.1615L78.1236 25.6535H75.2282L72.1475 17.4066H72.0431V25.6535H68.4124V13.6896H74.3052L76.642 20.4107H76.7456L79.0373 13.6896H85.0944L85.0905 25.6535Z" fill="#FDFDFD"/>
<path d="M85.0905 25.6535H81.2511V17.5073H81.1615L78.1236 25.6535H75.2282L72.1475 17.4066H72.0431V25.6535H68.4124V13.6896H74.3052L76.642 20.4107H76.7456L79.0373 13.6896H85.0944L85.0905 25.6535Z" fill="url(#paint5_linear_45_327)"/>
<path d="M87.4534 25.6495V13.6896H91.329V25.6535L87.4534 25.6495Z" fill="#FDFDFD"/>
<path d="M87.4534 25.6495V13.6896H91.329V25.6535L87.4534 25.6495Z" fill="url(#paint6_linear_45_327)"/>
<path d="M106.731 14.9061C108.034 15.9417 108.685 17.5302 108.685 19.6715C108.685 21.8128 108.034 23.4012 106.731 24.4369C105.428 25.4726 103.494 25.9904 100.929 25.9904C98.3718 25.9904 96.4421 25.4726 95.1396 24.4369C93.837 23.4012 93.1847 21.8128 93.1826 19.6715C93.1826 17.5318 93.8342 15.9433 95.1372 14.9061C96.4403 13.8688 98.37 13.351 100.926 13.3525C103.493 13.351 105.428 13.8688 106.731 14.9061ZM103.562 21.98C104.151 21.4446 104.445 20.6751 104.446 19.6715C104.446 18.6679 104.152 17.8984 103.562 17.363C102.974 16.828 102.095 16.5606 100.926 16.5606C99.7577 16.5606 98.8814 16.828 98.2976 17.363C97.7132 17.8984 97.4211 18.6679 97.4211 19.6715C97.4211 20.6751 97.7132 21.4446 98.2976 21.98C98.882 22.515 99.7582 22.7824 100.926 22.7824C102.095 22.7824 102.973 22.515 103.562 21.98Z" fill="#FDFDFD"/>
<path d="M106.731 14.9061C108.034 15.9417 108.685 17.5302 108.685 19.6715C108.685 21.8128 108.034 23.4012 106.731 24.4369C105.428 25.4726 103.494 25.9904 100.929 25.9904C98.3718 25.9904 96.4421 25.4726 95.1396 24.4369C93.837 23.4012 93.1847 21.8128 93.1826 19.6715C93.1826 17.5318 93.8342 15.9433 95.1372 14.9061C96.4403 13.8688 98.37 13.351 100.926 13.3525C103.493 13.351 105.428 13.8688 106.731 14.9061ZM103.562 21.98C104.151 21.4446 104.445 20.6751 104.446 19.6715C104.446 18.6679 104.152 17.8984 103.562 17.363C102.974 16.828 102.095 16.5606 100.926 16.5606C99.7577 16.5606 98.8814 16.828 98.2976 17.363C97.7132 17.8984 97.4211 18.6679 97.4211 19.6715C97.4211 20.6751 97.7132 21.4446 98.2976 21.98C98.882 22.515 99.7582 22.7824 100.926 22.7824C102.095 22.7824 102.973 22.515 103.562 21.98Z" fill="url(#paint7_linear_45_327)"/>
<path d="M118.951 16.3155C118.529 16.1085 117.92 16.0051 117.127 16.0051C116.313 16.0051 115.732 16.0904 115.385 16.2612C115.037 16.4319 114.864 16.6826 114.864 17.0131C114.856 17.129 114.881 17.2447 114.936 17.347C114.991 17.4494 115.074 17.5343 115.175 17.5921C115.383 17.7131 115.74 17.8014 116.247 17.8567L120.579 18.2533C121.89 18.3743 122.875 18.7215 123.535 19.2947C124.195 19.868 124.525 20.7332 124.525 21.8906C124.525 22.9817 124.259 23.8248 123.728 24.4197C123.197 25.0147 122.418 25.4252 121.39 25.6513C120.362 25.8774 119.005 25.9904 117.318 25.9904C115.699 25.9904 114.389 25.8691 113.387 25.6265C112.386 25.3838 111.614 24.9485 111.072 24.3204C110.531 23.6928 110.241 22.8055 110.202 21.6586H114.673C114.782 22.2871 115.058 22.7199 115.499 22.9569C115.941 23.1938 116.599 23.3123 117.473 23.3123C118.366 23.3123 119.008 23.2213 119.401 23.0391C119.793 22.857 119.989 22.5725 119.988 22.1855C119.988 21.8658 119.874 21.6329 119.646 21.4871C119.418 21.3412 119.076 21.2475 118.619 21.2061L114.45 20.7599C113.13 20.6171 112.137 20.2808 111.473 19.751C110.808 19.2213 110.476 18.378 110.475 17.2211C110.475 16.2381 110.741 15.4639 111.272 14.8984C111.803 14.3329 112.562 13.9333 113.55 13.6994C114.537 13.4682 115.775 13.3525 117.264 13.3525C118.743 13.3525 119.974 13.471 120.956 13.708C121.939 13.9449 122.705 14.3555 123.257 14.9396C123.808 15.5237 124.098 16.3227 124.127 17.3368H119.705C119.675 17.1174 119.59 16.909 119.459 16.7306C119.327 16.5522 119.152 16.4095 118.951 16.3155Z" fill="#FDFDFD"/>
<path d="M118.951 16.3155C118.529 16.1085 117.92 16.0051 117.127 16.0051C116.313 16.0051 115.732 16.0904 115.385 16.2612C115.037 16.4319 114.864 16.6826 114.864 17.0131C114.856 17.129 114.881 17.2447 114.936 17.347C114.991 17.4494 115.074 17.5343 115.175 17.5921C115.383 17.7131 115.74 17.8014 116.247 17.8567L120.579 18.2533C121.89 18.3743 122.875 18.7215 123.535 19.2947C124.195 19.868 124.525 20.7332 124.525 21.8906C124.525 22.9817 124.259 23.8248 123.728 24.4197C123.197 25.0147 122.418 25.4252 121.39 25.6513C120.362 25.8774 119.005 25.9904 117.318 25.9904C115.699 25.9904 114.389 25.8691 113.387 25.6265C112.386 25.3838 111.614 24.9485 111.072 24.3204C110.531 23.6928 110.241 22.8055 110.202 21.6586H114.673C114.782 22.2871 115.058 22.7199 115.499 22.9569C115.941 23.1938 116.599 23.3123 117.473 23.3123C118.366 23.3123 119.008 23.2213 119.401 23.0391C119.793 22.857 119.989 22.5725 119.988 22.1855C119.988 21.8658 119.874 21.6329 119.646 21.4871C119.418 21.3412 119.076 21.2475 118.619 21.2061L114.45 20.7599C113.13 20.6171 112.137 20.2808 111.473 19.751C110.808 19.2213 110.476 18.378 110.475 17.2211C110.475 16.2381 110.741 15.4639 111.272 14.8984C111.803 14.3329 112.562 13.9333 113.55 13.6994C114.537 13.4682 115.775 13.3525 117.264 13.3525C118.743 13.3525 119.974 13.471 120.956 13.708C121.939 13.9449 122.705 14.3555 123.257 14.9396C123.808 15.5237 124.098 16.3227 124.127 17.3368H119.705C119.675 17.1174 119.59 16.909 119.459 16.7306C119.327 16.5522 119.152 16.4095 118.951 16.3155Z" fill="url(#paint8_linear_45_327)"/>
<defs>
<linearGradient id="paint0_linear_45_327" x1="67.5" y1="39.9441" x2="67.5" y2="1.05651e-07" gradientUnits="userSpaceOnUse">
<stop stop-color="#282828"/>
<stop offset="1" stop-color="#353535"/>
</linearGradient>
<linearGradient id="paint1_linear_45_327" x1="21.6634" y1="31.3093" x2="21.6634" y2="8" gradientUnits="userSpaceOnUse">
<stop/>
<stop offset="1" stop-color="#282828"/>
</linearGradient>
<linearGradient id="paint2_linear_45_327" x1="21.6634" y1="8" x2="21.6634" y2="31.3419" gradientUnits="userSpaceOnUse">
<stop stop-color="white"/>
<stop offset="1" stop-color="#4E4E4E"/>
</linearGradient>
<linearGradient id="paint3_linear_45_327" x1="38.5869" y1="19.6715" x2="124.525" y2="19.6715" gradientUnits="userSpaceOnUse">
<stop stop-color="#FDFDFD"/>
<stop offset="1" stop-color="#A4A4A4"/>
</linearGradient>
<linearGradient id="paint4_linear_45_327" x1="38.5869" y1="19.6715" x2="124.525" y2="19.6715" gradientUnits="userSpaceOnUse">
<stop stop-color="#FDFDFD"/>
<stop offset="1" stop-color="#A4A4A4"/>
</linearGradient>
<linearGradient id="paint5_linear_45_327" x1="38.5869" y1="19.6715" x2="124.525" y2="19.6715" gradientUnits="userSpaceOnUse">
<stop stop-color="#FDFDFD"/>
<stop offset="1" stop-color="#A4A4A4"/>
</linearGradient>
<linearGradient id="paint6_linear_45_327" x1="38.5869" y1="19.6715" x2="124.525" y2="19.6715" gradientUnits="userSpaceOnUse">
<stop stop-color="#FDFDFD"/>
<stop offset="1" stop-color="#A4A4A4"/>
</linearGradient>
<linearGradient id="paint7_linear_45_327" x1="38.5869" y1="19.6715" x2="124.525" y2="19.6715" gradientUnits="userSpaceOnUse">
<stop stop-color="#FDFDFD"/>
<stop offset="1" stop-color="#A4A4A4"/>
</linearGradient>
<linearGradient id="paint8_linear_45_327" x1="38.5869" y1="19.6715" x2="124.525" y2="19.6715" gradientUnits="userSpaceOnUse">
<stop stop-color="#FDFDFD"/>
<stop offset="1" stop-color="#A4A4A4"/>
</linearGradient>
</defs>
</svg>
